<?xml version="1.0" encoding="utf-8"?>
<!-- Generator: Adobe Illustrator 21.0.2, SVG Export Plug-In . SVG Version: 6.00 Build 0)  -->
<svg version="1.1" id="Layer_1" xmlns="http://www.w3.org/2000/svg" xmlns:xlink="http://www.w3.org/1999/xlink" x="0px" y="0px"
	 viewBox="0 0 200 50" style="enable-background:new 0 0 200 50;" xml:space="preserve">
<g>
	<path d="M18.4,18.1l-0.1,0.5l-0.9-0.1l0,0.8l-1.2-0.5l0.4,1.3l-0.9,0.2l-0.4,0.6c-0.2-0.4-0.5-0.7-0.8-1L14,20.5l-0.7-1
		c-1.4,0.1-2.3,1.6-2.9,2.7l5.9-0.3L16.1,23l1.1,0l-0.4,0.7l1,0.7l-0.5,1.2H18l0.4,0.2c-1.2,3-2,5.6-4.5,7.8C12.4,35,10.7,36,8.7,36
		c-1.2,0-3-0.4-3.9-1.2c-2.4-0.8-3.1-2.9-3.1-5.2c0-4.3,2.8-10.4,5.6-13.7c1.3-1.6,3.7-2.7,5.8-2.7c2.7,0,4.5,1.8,5.7,4h-0.1
		c0.2,0.3,0.4,0.5,0.5,0.8L18.4,18.1z M17.7,16.7c-1-1.8-2.5-2.9-4.6-2.9c-2,0-4.1,1-5.3,2.5c-2.6,3.2-5.5,9.1-5.5,13.3
		c0,1.9,0.5,3.7,2.4,4.5c0.9,0.3,1.8,0.6,2.7,0.6c2,0,3.7-1,5.1-2.3c2.4-2.2,3.3-4.7,4.4-7.7l-0.3-0.2h-1.2l0.5-0.9l-0.8,0l0.2-1.1
		l-5,0.3L10,23.3l0.8,0.5l-0.6,0.4l0.9,0.6l-1.4,0.5l1,0.4l-0.7,0.6l0.4,0.3c0.6,0.1,1.2,0.1,1.8,0.1c-0.8,1.4-1.9,3.9-3.7,3.9
		c-1.3,0-1.8-1.4-1.8-2.5c0-1.7,1.8-5.9,2.8-7.5c0.7-1.1,1.6-2.4,3-2.4c0.8,0,1.3,0.6,1.7,1.2l0.4-0.5l1,0.1l-0.7-1.6l1.3,0.6l0-0.8
		l1.1,0.4L17,16.8L17.7,16.7z M10.1,27.1l-1.2-0.9l0.4-0.4l-0.5-0.2c-0.4,1.1-1,2.4-1,3.6c0,0.2,0,0.3,0,0.5c0.1,0,0.3,0.1,0.4,0.1
		c1.3,0,2.2-1.7,2.7-2.6C10.7,27.2,10.4,27.1,10.1,27.1z"/>
	<path d="M29.4,28.8c-1.1,3.6-3.2,6.9-7.4,6.9c-1.1,0-2.1-0.2-2.9-1C16.9,34.1,16,32,16,29.9c0-1.3,0.3-2.5,0.7-3.7
		c1.6-4.4,4-7.5,9-7.5l-0.5,1c0.3,0.1,0.5,0.2,1.2,0.5l0.2-1.3c0.7,0.4,1.3,1,1.7,1.8c0.1,0.2,0.2,0.4,0.3,0.6
		c0.2,0.2,0.4,0.5,0.5,0.7c0.6,1,0.9,2.2,0.9,3.3C30,26.5,29.8,27.6,29.4,28.8z M27.2,20l-0.1,1.1l-0.7-0.3v1.1l-2.1-0.9l0.8-0.7
		L24.6,20l0.3-0.7c-4.1,0.1-6.3,3.6-7.5,7.1c-0.4,1.1-0.7,2.3-0.7,3.5c0,2.7,1.3,4.4,4.1,4.4c4.1,0,6.2-3.3,7.3-6.9
		c0.4-1.1,0.6-2.3,0.6-3.4C28.7,22.6,28.2,21.1,27.2,20z M21.4,30.9c-0.9,0-1.1-0.9-1.1-1.6c0-1.8,1.7-6.3,3.8-6.3
		c0.8,0,0.9,0.8,0.9,1.3C25,26,23.7,30.9,21.4,30.9z M21.7,30.1c1.5-0.6,2.5-4,2.8-5.5C23,25.7,21.9,28.3,21.7,30.1z"/>
	<path d="M41.5,28.8c-1.1,3.6-3.2,6.9-7.4,6.9c-1.1,0-2.1-0.2-2.9-1c-2.2-0.6-3.1-2.7-3.1-4.9c0-1.3,0.3-2.5,0.7-3.7
		c1.6-4.4,4-7.5,9-7.5l-0.5,1c0.3,0.1,0.5,0.2,1.2,0.5l0.2-1.3c0.7,0.4,1.3,1,1.7,1.8c0.1,0.2,0.2,0.4,0.3,0.6
		c0.2,0.2,0.4,0.5,0.5,0.7c0.6,1,0.9,2.2,0.9,3.3C42.1,26.5,41.8,27.6,41.5,28.8z M39.2,20l-0.1,1.1l-0.7-0.3v1.1l-2.1-0.9l0.8-0.7
		L36.6,20l0.3-0.7c-4.1,0.1-6.3,3.6-7.5,7.1c-0.4,1.1-0.7,2.3-0.7,3.5c0,2.7,1.3,4.4,4.1,4.4c4.1,0,6.2-3.3,7.3-6.9
		c0.4-1.1,0.6-2.3,0.6-3.4C40.7,22.6,40.3,21.1,39.2,20z M33.5,30.9c-0.9,0-1.1-0.9-1.1-1.6c0-1.8,1.7-6.3,3.8-6.3
		c0.8,0,0.9,0.8,0.9,1.3C37.1,26,35.7,30.9,33.5,30.9z M33.8,30.1c1.5-0.6,2.5-4,2.8-5.5C35,25.7,33.9,28.3,33.8,30.1z"/>
	<path d="M46.9,35.4h-1.8c-0.9,0-1.9,0-2.7-0.3l0.5-0.6c-0.9-0.1-1.8-0.2-2.6-0.4l0.6-0.7h0l-0.2-0.7l-1.2,0.3
		c0.7-4.2,2.3-8.9,4.3-12.7l0.9,0.7l0.1,0v-1.3h0.8l-0.2-0.8c1.2-0.3,2.4-0.4,3.6-0.4c2.4,0,4.2,0.4,4.9,2.9c0.9,1,1.1,2.3,1.1,3.6
		C54.9,29.6,52.2,35.4,46.9,35.4z M49.9,19.2c-0.4,0-0.9,0-1.3,0c-0.9,0-1.8,0-2.6,0.2l0.2,1h-0.9v1.1l-0.8,0.4l-0.6-0.5
		c-1.6,3.2-3.1,7.4-3.7,10.9l0.9-0.2l0.2,0.8h0.9l-0.9,1c1.3,0.3,2.7,0.2,4,0.2c5.4,0,8.1-5.5,8.1-10.3
		C53.5,21.3,52.6,19.4,49.9,19.2z M46.4,30.4c-0.6,0-1.2,0-1.7,0c0.6-2.5,1.4-4.9,2.6-7.1c0.4,0,0.7,0,1.1,0c1.2,0,1.4,0.6,1.4,1.7
		C49.7,26.5,48.4,30.4,46.4,30.4z M48.5,24.6c-0.9,1.6-1.5,3.4-2,5.1c1.5-0.4,2.6-3.8,2.6-5.2L48.5,24.6z"/>
	<path d="M67.4,25.4c0,0.1,0.1,0.2,0.1,0.3c0.7,1.2,1.2,2.2,1.2,3.6c0,1.3-0.5,2.5-1.3,3.5c-2,2.5-4.6,3.2-7.6,3.2
		c-1.2,0-2.3-0.1-3.5-0.2l-0.1-0.4l0.5-0.2c-0.7,0-1.3-0.1-2-0.2l-0.3-1.1l-0.4-0.3l0.3-0.9l0,0l-0.6,1.1l-1.5-1.2
		c1.4-4.6,2.9-9.8,5.1-14.1l-0.6-0.2l1-1.1l-0.5-0.7l1.5-0.5L58,15.6l0.8-0.6L58,14.2c2-0.6,4.1-1,6.2-1c2.4,0,4.2,0.5,5,3
		c0.8,0.9,1.1,2.1,1.1,3.2C70.3,21.8,69.2,23.9,67.4,25.4z M66,13.9c-0.6-0.1-1.2-0.1-1.8-0.1c-1.7,0-3.4,0.3-5,0.7l0.5,0.6L59,15.6
		l1,0.7l-1.8,0.6l0.3,0.4L57.7,18l1,0.4l-1,0.5c-0.7,1.4-1.3,2.9-1.9,4.4c-1.1,3-2.1,6-3,9.1l0.6,0.5l1-1.7l0.4,1.2l0.5-0.6l1,1.1
		l-0.9,0.4l0.6,0.6L55,34.2l0.1,0.2c1.1,0.1,2.2,0.2,3.4,0.2c3,0,5.6-0.8,7.5-3.2c0.8-1,1.3-2.2,1.3-3.5c0-1.4-0.5-2.8-1.4-3.9
		c1.9-1.5,3.1-3.5,3.1-6C69,16.3,68,14.3,66,13.9z M59.4,30.7c-0.6,0-1.1,0-1.7-0.1c0.4-1.3,0.9-2.6,1.4-3.9c0.9,0,1.8-0.3,2.6-0.7
		c0.6,0.6,1,1.3,1,2.1C62.8,29.8,60.8,30.7,59.4,30.7z M62.1,27.8c-0.5,0.2-1,0.3-1.6,0.3c-0.3,0.6-0.5,1.3-0.8,1.9
		c1-0.1,2.4-0.8,2.4-1.9C62.2,28,62.1,27.9,62.1,27.8z M64.5,20.3c-0.9,1.3-2,2.4-3.7,2.4c0.7-1.6,1.3-3.3,2.2-4.8
		c0.2,0,0.4-0.1,0.5-0.1c0.8,0,1.4,0.4,1.4,1.2C64.9,19.5,64.7,19.9,64.5,20.3z"/>
	<path d="M81.1,28.8c-1.1,3.6-3.2,6.9-7.4,6.9c-1.1,0-2.1-0.2-2.9-1c-2.2-0.6-3.1-2.7-3.1-4.9c0-1.3,0.3-2.5,0.7-3.7
		c1.6-4.4,4-7.5,9-7.5l-0.5,1c0.3,0.1,0.5,0.2,1.2,0.5l0.2-1.3c0.7,0.4,1.3,1,1.7,1.8c0.1,0.2,0.2,0.4,0.3,0.6
		c0.2,0.2,0.4,0.5,0.5,0.7c0.6,1,0.9,2.2,0.9,3.3C81.7,26.5,81.4,27.6,81.1,28.8z M78.8,20l-0.1,1.1L78,20.8v1.1l-2.1-0.9l0.8-0.7
		L76.2,20l0.3-0.7c-4.1,0.1-6.3,3.6-7.5,7.1c-0.4,1.1-0.7,2.3-0.7,3.5c0,2.7,1.3,4.4,4.1,4.4c4.1,0,6.2-3.3,7.3-6.9
		c0.4-1.1,0.6-2.3,0.6-3.4C80.3,22.6,79.9,21.1,78.8,20z M73.1,30.9c-0.9,0-1.1-0.9-1.1-1.6c0-1.8,1.7-6.3,3.8-6.3
		c0.8,0,0.9,0.8,0.9,1.3C76.6,26,75.3,30.9,73.1,30.9z M73.4,30.1c1.5-0.6,2.5-4,2.8-5.5C74.6,25.7,73.5,28.3,73.4,30.1z"/>
	<path d="M93.1,28.8c-1.1,3.6-3.2,6.9-7.4,6.9c-1.1,0-2.1-0.2-2.9-1c-2.2-0.6-3.1-2.7-3.1-4.9c0-1.3,0.3-2.5,0.7-3.7
		c1.6-4.4,4-7.5,9-7.5l-0.5,1c0.3,0.1,0.5,0.2,1.2,0.5l0.2-1.3c0.7,0.4,1.3,1,1.7,1.8c0.1,0.2,0.2,0.4,0.3,0.6
		c0.2,0.2,0.4,0.5,0.5,0.7c0.6,1,0.9,2.2,0.9,3.3C93.7,26.5,93.5,27.6,93.1,28.8z M90.9,20l-0.1,1.1L90,20.8v1.1l-2.1-0.9l0.8-0.7
		L88.2,20l0.3-0.7c-4.1,0.1-6.3,3.6-7.5,7.1c-0.4,1.1-0.7,2.3-0.7,3.5c0,2.7,1.3,4.4,4.1,4.4c4.1,0,6.2-3.3,7.3-6.9
		c0.4-1.1,0.6-2.3,0.6-3.4C92.3,22.6,91.9,21.1,90.9,20z M85.1,30.9c-0.9,0-1.1-0.9-1.1-1.6c0-1.8,1.7-6.3,3.8-6.3
		c0.8,0,0.9,0.8,0.9,1.3C88.7,26,87.3,30.9,85.1,30.9z M85.4,30.1c1.5-0.6,2.5-4,2.8-5.5C86.6,25.7,85.6,28.3,85.4,30.1z"/>
	<path d="M108.6,21.6l-6.6,7.4l1.6,6l-0.5,0l-0.6-0.7l-0.3,0l-0.2,1.1l-0.7-0.4l-0.4,1l-0.9-0.7l-0.7,0.6l-0.3-1l-0.3-0.2l-0.9,0.8
		l-0.8-2.6l-0.9,2.8l-0.4-0.9l-0.6,0.4L95,35.6l-0.6-1.1l-0.8,0.8l-0.2-0.9l-1.3,1.1L91.8,34l-1.7,1.3c1.5-5.7,3.5-11.4,6.1-16.8
		l0.7,0.7l1.1-1.2l0.4,1.4l0.6-0.9l0.5,0.9l0.6-0.6l1.1,1l-0.6,1.5l2.6-3l0.5,1l1.4-0.7l-0.1,1.2l1.4-1l0.2,0.7l1.2-0.6l0.3,1.6
		l-0.6,0.7l0.1,0.4l1.2-0.7V21.6z M107.2,20.3v-0.5l-1.2,0.7l-0.2-0.6l-2,1.5l0.4-1.8l-1,0.6l-0.4-0.8l-4.6,5.3l2-4.7l-0.4-0.3
		l-0.8,0.8l-0.4-0.7l-1.3,1.9l0.2-2.5l-0.8,0.9l-0.5-0.5c-2.1,4.5-3.8,9.2-5.1,14l1-0.8l0.2,1.1l1.6-2.1v2l0.6-0.3l0.3,0.7l1.7-5.1
		l1.6,5.4l0.6-0.5l0.8,0.7l0.4-1l0.7,0.4l0.2-1.5l0.9,1.2l0.2,0l-1.5-5.9L107.2,20.3z"/>
	<path d="M129.8,21.7c-1.1,3.1-2.6,4.4-5.6,5.6c0.5,3,1.3,5.9,2.5,8.6l-0.5,0.7l-0.8-1l-0.4,0.6l-0.9-0.9l-0.3,0.8l-0.8-0.9
		l-0.3,0.8l-0.4-0.6l-0.5-0.1l-0.3-0.5l-1.5-0.5c-0.4-1.2-0.8-2.4-1.2-3.6c-0.6,1.7-1.2,3.3-1.8,5l-0.6,0.3l-0.2-1.3l-1.4,0.9
		l-0.2-1.2l-0.5,0.4l-0.1-0.4l-0.5,0.8l-0.4-0.7l0-0.5l-0.2-0.2l-0.8,1l-0.9-1.5c1.5-5.1,3.3-10.1,5.5-15l-0.6-0.3l1-1.1l-0.5-0.7
		l1.4-0.5l-0.6-0.6l0.8-0.4l-0.7-0.9c1.9-0.5,3.8-0.8,5.8-0.8c2.5,0,5,0.4,5.9,3.1c0.7,0.8,1,1.9,1,3
		C130.3,20.1,130.1,20.9,129.8,21.7z M123.3,13.8c-1.5,0-3,0.2-4.5,0.6l0.5,0.6l-0.6,0.5l0.9,0.7l-1.8,0.5l0.3,0.4l-0.7,0.8l0.9,0.3
		l-0.9,0.6c-2.1,4.7-3.9,9.6-5.3,14.5l0.3,0.5l1.1-1.7l0.2,1.1l0.6-0.5l0.3,1.1l0.6-0.5l0.2,1.4l0.4-0.2c0.8-2.5,1.7-5,2.7-7.4
		c0.5,2.3,1.3,4.5,2.1,6.8l0.6,0.2l0.1-1.2l1.4,1.8l0.3-0.8l0.6,0.9l0.4-0.8l1.1,1.4l0.4-0.5c-1.2-2.8-2-5.7-2.5-8.7
		c3-1.3,4.5-2.5,5.6-5.6c0.3-0.8,0.5-1.5,0.5-2.3C128.9,14.5,126.3,13.8,123.3,13.8z M124,20.2c-0.8,1.5-2,2.2-3.7,2.2
		c0.7-1.6,1.3-3.2,2.2-4.6c0.3-0.1,0.5-0.1,0.8-0.1c0.7,0,1.3,0.3,1.3,1C124.4,19.2,124.2,19.7,124,20.2z"/>
	<path d="M140.6,22.3l-2.1,0.4l1.3,0.7l-1,0.5l0.4,0.9c-0.6-0.1-1.1-0.1-1.7-0.1c-0.3,0-0.6,0-0.9,0l0.6,1.4l-0.9,0.5h0h1.2l0.3,0.6
		l-1.2,0.7l1,0.7l-0.9,0.6l0.6,0.6l-0.3,0.6l-4.4,0l-0.1,0.5h0.2c1.3,0,2.3-0.1,3.5-0.1l-1,1.4l0.5,0.3l0.9,0.2l-0.8,1l0.5,0.3
		l-0.9,0.4l-0.2,0.3l1.2,0.3l-0.5,0.8c-1.1,0.3-2.3,0.3-3.4,0.3c-1.3,0-2.5-0.1-3.7-0.3l0.4-0.6c-0.8-0.1-1.7-0.2-2.5-0.3l0.8-1.3
		l-0.6-0.3l0-0.6l-1.4,0.7c0.8-4.4,2.2-8.3,4.2-12.2l0.8,0.8l0.2-0.1l-0.5-1.4l1-0.1l-0.3-0.6c1.7-0.2,3.4-0.3,5.1-0.3
		c1.5,0,3,0.1,4.5,0.2l-1.3,1.1l1.3,1.1l-0.9,0.2L140.6,22.3z M139,20.9l-0.8-0.7l0.7-0.6c-1-0.1-1.9-0.1-2.9-0.1
		c-1.4,0-2.7,0.1-4,0.2l0.3,0.7l-1.1,0.1l0.4,1.2l-1.1,0.6l-0.5-0.5c-1.6,3.2-2.9,6.6-3.6,10.1l1.3-0.6l-0.1,1.2l1,0.4l-0.8,1.1
		c1.2,0.2,2.3,0.2,3.5,0.2c1.1,0,2.3,0,3.4-0.3l0.4-0.6l-1.7-0.5l1.5-0.7l-0.5-0.3l0.8-1.1c-0.8,0.1-1.5,0.1-2.3,0.1
		c-0.8,0-1.5,0-2.2-0.2l0.6-2.3l4.4,0.1l0.2-0.4l-0.7-0.6l0.8-0.6l-1.1-0.7l1.2-0.7l-0.2-0.4l-3.8,0l1.1-2c0.9-0.1,1.9-0.2,2.8-0.2
		c0.5,0,1,0,1.5,0.1l-0.4-0.8l0.8-0.4l-1.4-0.8L139,20.9z"/>
	<path d="M153,21c-1.9,2.3-3.5,4.8-5.2,7.2c-1.6,2.4-3.3,4.8-4.7,7.4l-0.6-0.9l-0.7,0.6l-0.8-1.2l-1,1.3l-0.3-0.7l-0.9,0.9l-0.6-1.3
		l-0.7,0.7l-0.8-0.9c0.6-5.4,2.8-15.7,2.8-15.7l0.8,1l0.9-1l0.5,1.2l0.6-0.6l0.2,0.7c0.5-0.6,1.7-1.3,1.7-1.3l-0.6,3.6l0.1,0.4
		l0.9-1.8l0.2,0.5l1.6-2.4l1.7-0.4l-0.2,1.2l1.1-0.8l0.2,0.7l1.3-0.9l0.3,0.8l1.9-0.3c0,0-0.7,1-1.2,1.6l0.2,0.5L153,21z
		 M150.5,20.2l-0.2-0.6l-1.4,1l-0.2-0.7l-1.6,1.3l0.3-1.9l-0.6,0.1l-4,6h-0.3l1-5.4l-0.3,0.2l-0.7,1.5l-0.4-1.3l-0.6,0.6l-0.4-1.3
		l-0.8,1.1l-0.5-0.8c-1.1,4.6-2,9.3-2.5,14.1l0.2,0.2l0.9-0.9l0.3,0.6l1.4-1.8l0.2,1.6l0.8-0.4l0.5,0.8c1.5-2.5,3.1-4.9,4.7-7.3
		c1.6-2.3,3.2-4.7,4.9-6.9L150.5,20.2z"/>
	<path d="M158.8,20.9c-2.2,4.9-4.3,10-5.8,15.2l-0.5-0.7l-0.5,0.5l-0.9-1.1l-0.9,0.8l-0.2-0.9l-0.9,0.7l0-0.7l-0.4-0.6l-1.8,1.1
		c1.7-6,3.4-11.5,6.2-17.1l0.5,1.2l1.4-1.7l0.5,1.8l0.9-0.6l0.4,0.8l1.7-1l-0.9,2.4l0.2,0.6L158.8,20.9z M156.5,20.5l-0.3-0.8
		l-1.1,0.8l-0.2-1.7l-1.4,1.6l-0.3-0.8c-2.2,4.6-3.9,9.4-5.3,14.4l1-0.8l0.6,0.7l1.3-1.8l0,2.3l0.6-0.4l0.4,0.6
		c1.5-5,3.5-9.8,5.6-14.6L156.5,20.5z"/>
	<path d="M169.7,22.3l-2.1,0.4l1.3,0.7l-1,0.5l0.4,0.9c-0.6-0.1-1.1-0.1-1.7-0.1c-0.3,0-0.6,0-0.9,0l0.6,1.4l-0.9,0.5h0h1.2l0.3,0.6
		l-1.2,0.7l1,0.7l-0.9,0.6l0.6,0.6l-0.3,0.6l-4.4,0l-0.1,0.5h0.2c1.3,0,2.3-0.1,3.5-0.1l-1,1.4l0.5,0.3l0.9,0.2l-0.8,1l0.5,0.3
		l-0.9,0.4l-0.2,0.3l1.2,0.3l-0.5,0.8c-1.1,0.3-2.3,0.3-3.4,0.3c-1.3,0-2.5-0.1-3.7-0.3l0.4-0.6c-0.8-0.1-1.7-0.2-2.5-0.3l0.8-1.3
		l-0.6-0.3l0-0.6l-1.4,0.7c0.8-4.4,2.2-8.3,4.2-12.2l0.8,0.8l0.2-0.1l-0.5-1.4l1-0.1l-0.3-0.6c1.7-0.2,3.4-0.3,5.1-0.3
		c1.5,0,3,0.1,4.5,0.2l-1.3,1.1l1.3,1.1l-0.9,0.2L169.7,22.3z M168.2,20.9l-0.8-0.7l0.7-0.6c-1-0.1-1.9-0.1-2.9-0.1
		c-1.4,0-2.7,0.1-4,0.2l0.3,0.7l-1.1,0.1l0.4,1.2l-1.1,0.6l-0.5-0.5c-1.6,3.2-2.9,6.6-3.6,10.1l1.3-0.6l-0.1,1.2l1,0.4l-0.8,1.1
		c1.2,0.2,2.3,0.2,3.5,0.2c1.1,0,2.3,0,3.4-0.3l0.4-0.6l-1.7-0.5l1.5-0.7l-0.5-0.3l0.8-1.1c-0.8,0.1-1.5,0.1-2.3,0.1
		c-0.8,0-1.5,0-2.2-0.2l0.6-2.3l4.4,0.1l0.2-0.4l-0.7-0.6l0.8-0.6l-1.1-0.7l1.2-0.7l-0.2-0.4l-3.8,0l1.1-2c0.9-0.1,1.9-0.2,2.8-0.2
		c0.5,0,1,0,1.5,0.1l-0.4-0.8l0.8-0.4l-1.4-0.8L168.2,20.9z"/>
	<path d="M190.1,21.1c-3.8,4.4-7.1,9.3-9.6,14.5l-0.3-0.3v-1.7c-0.3,0.6-1.1,2-1.1,2l-0.6-1.2l-1.2,1.2l-0.2-1l-0.8,0.7l-0.5-1.2
		l-1.3,1.1c0-1.3,0.1-2.6,0.2-3.9c-1,1.4-1.9,2.8-2.8,4.2l-0.6-1.1l-0.7,0.8L170,34l-0.7,1l-0.3-0.5l-0.9,0.8l-0.5-1.3l-1.4,1.2
		c0.2-5.2,1.1-11.6,2.9-16.5l0.6,0.6l0.7-0.9l0.5,1.1l0.7-0.6l0.3,1.1l0.8-1.2l1,1.1c-0.2,0.7-0.4,1.4-0.5,2.1l0.8-1.1l0.4,0.4
		l-0.1,0.3c0.7-0.9,1.4-1.8,2.2-2.7l0.4,1l1.1-0.8l0.1,0.8l0.6-1l0.8,1l1.3-0.2l-0.3,2l0.1,0.1l0.8-0.1c0.8-1.1,1.6-2.2,2.5-3.3
		l0.4,0.9l1.5-1.1V20l1.4-1.1l0.2,0.8l1.6-1l0.7,1.2c-0.5,0.6-0.9,1.1-1.4,1.7l0,0.1l1.8-1.1L190.1,21.1z M188.5,19.6l-1.8,1.1
		l-0.1-0.7l-1.8,1.4l0.3-2l-1.2,0.9l-0.3-0.7c-1.6,1.9-2.9,4-4.1,6.2h-0.3l0.8-5.3l-0.8,0.1l-0.5-0.7l-1.1,2.2l-0.2-1.9l-0.9,0.6
		l-0.3-0.9c-1.6,1.8-3,3.7-4,5.9H172c0.3-2,0.5-4,1-5.9l-0.2-0.3l-1.2,1.7l-0.4-1.4l-0.7,0.7l-0.2-1.1l-0.5,0.6l-0.4-0.4
		c-1.4,4-2.3,9.7-2.5,13.9l0.8-0.7l0.3,0.5l1.1-1.5l0.2,1.5l0.8-0.6l0.6,1c1.4-2.4,3-4.7,4.8-6.8h0.3c-0.4,2.2-0.5,4.4-0.6,6.7
		l0.8-0.6l0.4,0.6l1.1-0.8l0.3,1.1l1.5-2.2V34l0.1,0.2c2.6-5.1,5.8-9.9,9.5-14.3L188.5,19.6z"/>
	<path d="M197.9,21.9l0,0.8l-1.3-0.3l1,1.7l-0.8,0l0.4,0.9l-0.4,0.1c-0.3-0.3-0.7-0.6-1.1-0.8l-0.3,0.1l-0.4-0.4c-0.1,0-0.2,0-0.2,0
		c-0.6,0-1.3,0.3-1.4,1c0.7,0.6,1.4,1.3,1.8,2.1c0.1,0.2,0.2,0.5,0.3,0.7c0.6,1.2,1.1,1.8,1.1,3.2c0,2.9-2.7,4.8-5.5,4.8
		c-1.5,0-2.3-0.5-3.5-1.2c-0.3-0.2-0.5-0.3-0.8-0.4c-1-0.6-1.9-1.5-2.7-2.4l1.1-0.4l-0.3-1.2l1.1,0.4l-0.2-1.2l0.9,0.1l0.3-1.3
		c0.5,0.4,2.1,2,2.7,2c0.4,0,0.7-0.6,0.7-0.9c0-1.6-3.5-2.4-3.5-5.5c0-3.4,2.8-5.6,6.1-5.6c1.9,0,3.7,0.9,5.2,2l-0.8,0.5
		c0.4,0.2,0.8,0.4,1.2,0.7L197.9,21.9z M197,20.3c-1.2-0.8-2.5-1.4-3.9-1.4c-2.9,0-5.6,1.8-5.6,4.9c0,2.8,3.4,3.5,3.4,5.6
		c0,0.6-0.5,1.4-1.2,1.4c-0.8,0-1.9-1-2.4-1.5l-0.2,0.9l-0.8-0.2l0.8,1.6l-1.4-0.5l0.2,0.6l-0.8,0.3c1.2,1.4,2.8,2.4,4.7,2.4
		c2.6,0,5.3-1.9,5.3-4.7c0-3.5-3.2-4.4-3.2-5.9c0-0.8,0.9-1.2,1.6-1.2c0.8,0,1.5,0.5,2,1l0.2-0.1l-0.4-1l0.8,0l-1.1-1.8l1.5,0.4
		l0-0.7L197,20.3z"/>
</g>
</svg>
